<svg xmlns="http://www.w3.org/2000/svg" width="58.667" height="93.772" viewBox="0 0 58.667 93.772">
  <path id="w" d="M29.334,216.772a28.914,28.914,0,0,1-11.418-2.327A29.221,29.221,0,0,1,8.592,208.1,29.66,29.66,0,0,1,0,187.161H14.666a14.684,14.684,0,0,0,14.667-14.667V157.548A29.572,29.572,0,0,0,0,186.812H0V137.667A14.667,14.667,0,0,1,25.038,127.3a14.57,14.57,0,0,1,4.3,10.371v19.881a28.916,28.916,0,0,1,11.418,2.327,29.221,29.221,0,0,1,9.324,6.346,29.771,29.771,0,0,1,0,41.878,29.221,29.221,0,0,1-9.324,6.346A28.911,28.911,0,0,1,29.334,216.772Z" transform="translate(0 -123)" fill="#fff"/>
</svg>